<svg width="16" height="14" viewBox="0 0 16 14" fill="none" xmlns="http://www.w3.org/2000/svg">
<path d="M14.5333 6.06358H15.0333V5.92501L14.962 5.80621L14.5333 6.06358ZM1.46666 6.06358L1.03799 5.80621L0.96666 5.92501V6.06358H1.46666ZM3.45089 2.75871L3.02222 2.50133L3.45089 2.75871ZM12.5491 2.75871L12.9778 2.50133L12.5491 2.75871ZM4.26666 10.7333V10.2333H3.76666V10.7333H4.26666ZM11.7333 10.7333H12.2333V10.2333H11.7333V10.7333ZM14.0333 6.06358V11.6667H15.0333V6.06358H14.0333ZM1.89533 6.32096L3.87957 3.01608L3.02222 2.50133L1.03799 5.80621L1.89533 6.32096ZM5.85145 1.89999H10.1485V0.899994H5.85145V1.89999ZM12.1204 3.01608L14.1047 6.32096L14.962 5.80621L12.9778 2.50133L12.1204 3.01608ZM3.33333 12.1H2.39999V13.1H3.33333V12.1ZM3.76666 10.7333V11.6667H4.76666V10.7333H3.76666ZM13.6 12.1H12.6667V13.1H13.6V12.1ZM12.2333 11.6667V10.7333H11.2333V11.6667H12.2333ZM11.7333 10.2333H4.26666V11.2333H11.7333V10.2333ZM1.96666 11.6667V6.06358H0.96666V11.6667H1.96666ZM12.6667 12.1C12.4273 12.1 12.2333 11.906 12.2333 11.6667H11.2333C11.2333 12.4583 11.8751 13.1 12.6667 13.1V12.1ZM3.33333 13.1C4.12493 13.1 4.76666 12.4583 4.76666 11.6667H3.76666C3.76666 11.906 3.57265 12.1 3.33333 12.1V13.1ZM2.39999 12.1C2.16067 12.1 1.96666 11.906 1.96666 11.6667H0.96666C0.96666 12.4583 1.60838 13.1 2.39999 13.1V12.1ZM10.1485 1.89999C10.9562 1.89999 11.7047 2.32363 12.1204 3.01608L12.9778 2.50133C12.3813 1.50782 11.3074 0.899994 10.1485 0.899994V1.89999ZM3.87957 3.01608C4.29531 2.32363 5.04379 1.89999 5.85145 1.89999V0.899994C4.69263 0.899994 3.61872 1.50782 3.02222 2.50133L3.87957 3.01608ZM14.0333 11.6667C14.0333 11.906 13.8393 12.1 13.6 12.1V13.1C14.3916 13.1 15.0333 12.4583 15.0333 11.6667H14.0333ZM2.86666 9.36666H5.66666V8.36666H2.86666V9.36666ZM13.1333 8.36666H10.3333V9.36666H13.1333V8.36666ZM3.79999 6.56666H12.2V5.56666H3.79999V6.56666Z" fill="#FF0D29"/>
</svg>
